<?xml version="1.0"?>
<svg xmlns="http://www.w3.org/2000/svg" xmlns:xlink="http://www.w3.org/1999/xlink" version="1.1" id="Capa_1" x="0px" y="0px" viewBox="0 0 512 512" style="enable-background:new 0 0 512 512;" xml:space="preserve" width="512px" height="512px" class=""><g><g>
	<g>
		<path d="M297.067,80.519c-1.859-1.86-4.439-2.93-7.069-2.93s-5.21,1.07-7.07,2.93s-2.93,4.44-2.93,7.07    c0,2.64,1.069,5.21,2.93,7.07c1.86,1.86,4.44,2.93,7.07,2.93s5.21-1.07,7.069-2.93c1.86-1.86,2.931-4.44,2.931-7.07    S298.928,82.378,297.067,80.519z" data-original="#000000" class="active-path" data-old_color="#F2EDED" fill="#F9F7F7"/>
	</g>
</g><g>
	<g>
		<path d="M290,113.228c-5.522,0-10,4.477-10,10v167.381c0,17.761-14.449,32.212-32.212,32.212c-12.288,0-23.465-7.018-28.869-17.97    c19.935-9.395,33.77-29.674,33.77-53.132c0-5.523-4.478-10-10-10c-5.522,0-10,4.477-10,10c0,21.344-17.364,38.708-38.708,38.708    c-21.344,0-38.708-17.364-38.708-38.708c0-7.909,2.324-15.393,6.738-21.823c5.269-1.309,10.268-3.589,14.709-6.724    c3.885,1.84,8.223,2.874,12.798,2.874c16.541,0,29.999-13.457,29.999-29.999c0-16.541-13.457-29.999-29.999-29.999    c-16.541,0-29.999,13.457-29.999,29.999c0,4.488,0.997,8.745,2.771,12.571c-3.273,1.678-6.92,2.57-10.726,2.57    c-12.99,0-23.56-10.569-23.56-23.56v-54.344c0-12.99,10.569-23.56,23.56-23.56s23.561,10.569,23.561,23.56c0,5.523,4.478,10,10,10    c5.522,0,10-4.477,10-10c0-17.243-10.072-32.177-24.641-39.23c-3.055-3.935-4.729-8.762-4.729-13.788    c0-12.414,10.1-22.514,22.514-22.514c2.8,0,5.539,0.516,8.104,1.505c0.991,8.55,4.759,16.493,10.874,22.727    c1.959,1.996,4.548,2.997,7.14,2.997c2.526,0,5.056-0.952,7.002-2.862c3.942-3.868,4.003-10.199,0.136-14.141    c-3.498-3.564-5.424-8.276-5.424-13.265v-2.763c-0.001-17.617,14.331-31.95,31.949-31.95c17.617,0,31.95,14.332,31.95,31.95    c0,5.523,4.478,10,10,10s10-4.477,10-10C299.998,23.304,276.693,0,248.049,0c-2.224,0-4.412,0.157-6.563,0.429    c-0.927-0.265-1.905-0.401-2.916-0.38C184.498,0.922,133.801,22.641,95.819,61.204c-37.674,38.25-58.578,88.77-58.961,142.408    L0.442,323.725c-0.919,3.03-0.349,6.316,1.538,8.859c1.886,2.543,4.865,4.042,8.031,4.042h48.386v62.17    c0,32.674,26.582,59.255,59.256,59.255h62.92c10.476,0,18.997,8.523,18.997,18.998V502c0,5.523,4.478,10,10,10    c5.522,0,10-4.477,10-10V477.05c0-21.503-17.493-38.997-38.996-38.997h-62.92c-21.646,0-39.257-17.61-39.257-39.256v-72.17    c0-5.523-4.478-10-10-10H23.491l32.932-108.614c0.286-0.94,0.431-1.918,0.431-2.901c0-88.611,63.585-163.659,147.501-181.206    c-2.927,4.544-5.173,9.565-6.573,14.926c-3.099-0.709-6.285-1.08-9.513-1.08c-23.441,0-42.513,19.071-42.513,42.513    c0,3.302,0.382,6.559,1.121,9.716c-21.821,2.347-38.87,20.868-38.87,43.303v54.346c0,19.887,13.401,36.692,31.645,41.889    c-2.86,7.009-4.377,14.559-4.377,22.2c0,32.372,26.336,58.707,58.707,58.707c1.811,0,3.599-0.095,5.368-0.256l0.694,1.567    c8.356,18.882,27.097,31.083,47.745,31.083c28.789,0,52.211-23.421,52.211-52.211V123.228    C299.999,117.705,295.521,113.228,290,113.228z M189.519,186.048c5.514,0,10,4.486,10,10c0,5.514-4.486,10-10,10s-10-4.486-10-10    C179.519,190.534,184.005,186.048,189.519,186.048z" data-original="#000000" class="active-path" data-old_color="#F2EDED" fill="#F9F7F7"/>
	</g>
</g><g>
	<g>
		<path d="M337.065,214.123c-1.859-1.87-4.439-2.93-7.069-2.93s-5.21,1.06-7.07,2.93c-1.86,1.86-2.93,4.44-2.93,7.07    s1.069,5.2,2.93,7.07c1.86,1.86,4.44,2.93,7.07,2.93s5.21-1.07,7.069-2.93c1.86-1.86,2.931-4.44,2.931-7.07    C339.996,218.553,338.926,215.983,337.065,214.123z" data-original="#000000" class="active-path" data-old_color="#F2EDED" fill="#F9F7F7"/>
	</g>
</g><g>
	<g>
		<path d="M473.119,89.981c0.739-3.158,1.121-6.415,1.121-9.717c0-23.442-19.071-42.513-42.513-42.513    c-3.228,0-6.414,0.371-9.513,1.08C416.388,16.517,396.06,0,371.946,0c-28.645,0-51.949,23.304-51.949,51.949v128.506    c0,5.523,4.478,10,10,10c5.522,0,10-4.477,10-10V51.949c0-17.617,14.332-31.95,31.95-31.95s31.95,14.332,31.95,31.95v2.763    c0,5.332-2.267,10.446-6.218,14.029c-4.091,3.71-4.398,10.035-0.688,14.124c3.71,4.09,10.035,4.398,14.125,0.688    c6.99-6.341,11.406-15.013,12.503-24.296c2.567-0.99,5.308-1.507,8.109-1.507c12.414,0,22.514,10.1,22.514,22.514    c0,5.027-1.674,9.853-4.729,13.787c-12.23,5.922-21.281,17.4-23.875,31.134c-12.036,3.904-20.766,15.218-20.766,28.539    c0,16.541,13.457,29.999,29.999,29.999c16.541,0,29.999-13.457,29.999-29.999c0-12.586-7.795-23.379-18.807-27.825    c3.106-9.384,11.956-16.175,22.369-16.175c12.99,0,23.56,10.569,23.56,23.56v54.346c0,12.99-10.569,23.56-23.561,23.56    c-6.532,0-12.605-2.612-17.102-7.356c-3.8-4.008-10.128-4.179-14.136-0.378c-4.009,3.799-4.178,10.129-0.379,14.136    c5.753,6.07,13.153,10.311,21.173,12.303c4.413,6.43,6.737,13.914,6.737,21.823c0,21.344-17.364,38.708-38.708,38.708    c-21.344,0-38.708-17.364-38.708-38.708c0-5.523-4.478-10-10-10c-5.522,0-10,4.477-10,10c0,23.458,13.835,43.738,33.77,53.132    c-5.404,10.953-16.58,17.97-28.869,17.97c-17.762,0-32.212-14.45-32.212-32.212v-33.784c0-5.523-4.478-10-10-10    c-5.522,0-10,4.477-10,10v33.784c0,28.79,23.422,52.211,52.211,52.211c20.648,0,39.389-12.2,47.745-31.083l0.694-1.567    c1.769,0.161,3.557,0.256,5.368,0.256c32.372,0,58.707-26.336,58.707-58.707c0-7.641-1.518-15.191-4.377-22.2    c18.243-5.197,31.645-22.001,31.645-41.889v-54.346C511.989,110.85,494.94,92.328,473.119,89.981z M434.87,163.724    c-5.514,0-10-4.486-10-10c0-5.514,4.486-10,10-10c5.514,0,10,4.486,10,10C444.87,159.238,440.384,163.724,434.87,163.724z" data-original="#000000" class="active-path" data-old_color="#F2EDED" fill="#F9F7F7"/>
	</g>
</g><g>
	<g>
		<path d="M378.766,362.568c-16.541,0-29.999,13.457-29.999,29.999c0,13.035,8.361,24.151,19.999,28.279V502c0,5.523,4.478,10,10,10    c5.522,0,10-4.477,10-10v-81.154c11.638-4.128,19.999-15.242,19.999-28.279C408.764,376.026,395.307,362.568,378.766,362.568z     M380.946,402.321c-0.703-0.156-1.43-0.245-2.179-0.245s-1.477,0.089-2.179,0.245c-4.468-0.998-7.821-4.989-7.821-9.754    c0-5.514,4.486-10,10-10c5.514,0,10,4.486,10,10C388.765,397.332,385.413,401.323,380.946,402.321z" data-original="#000000" class="active-path" data-old_color="#F2EDED" fill="#F9F7F7"/>
	</g>
</g><g>
	<g>
		<path d="M65.388,464.312h-6.859c-5.522,0-10,4.477-10,10s4.478,10,10,10h6.859c5.522,0,10-4.477,10-10    S70.91,464.312,65.388,464.312z" data-original="#000000" class="active-path" data-old_color="#F2EDED" fill="#F9F7F7"/>
	</g>
</g><g>
	<g>
		<path d="M16.869,464.312h-6.859c-5.522,0-10,4.477-10,10s4.478,10,10,10h6.859c5.522,0,10-4.477,10-10    S22.392,464.312,16.869,464.312z" data-original="#000000" class="active-path" data-old_color="#F2EDED" fill="#F9F7F7"/>
	</g>
</g><g>
	<g>
		<path d="M37.698,485.142c-5.522,0-10,4.477-10,10V502c0,5.523,4.478,10,10,10c5.522,0,10-4.477,10-10v-6.859    C47.698,489.619,43.221,485.142,37.698,485.142z" data-original="#000000" class="active-path" data-old_color="#F2EDED" fill="#F9F7F7"/>
	</g>
</g><g>
	<g>
		<path d="M37.698,436.624c-5.522,0-10,4.477-10,10v6.859c0,5.523,4.478,10,10,10c5.522,0,10-4.477,10-10v-6.859    C47.698,441.101,43.221,436.624,37.698,436.624z" data-original="#000000" class="active-path" data-old_color="#F2EDED" fill="#F9F7F7"/>
	</g>
</g><g>
	<g>
		<path d="M501.989,350.509h-6.859c-5.522,0-10,4.477-10,10c0,5.523,4.478,10,10,10h6.859c5.522,0,10-4.477,10-10    C511.989,354.986,507.511,350.509,501.989,350.509z" data-original="#000000" class="active-path" data-old_color="#F2EDED" fill="#F9F7F7"/>
	</g>
</g><g>
	<g>
		<path d="M453.471,350.509h-6.859c-5.522,0-10,4.477-10,10c0,5.523,4.478,10,10,10h6.859c5.522,0,10-4.477,10-10    C463.47,354.986,458.993,350.509,453.471,350.509z" data-original="#000000" class="active-path" data-old_color="#F2EDED" fill="#F9F7F7"/>
	</g>
</g><g>
	<g>
		<path d="M474.302,371.339c-5.522,0-10,4.477-10,10v6.859c0,5.523,4.478,10,10,10s10-4.477,10-10v-6.859    C484.301,375.816,479.823,371.339,474.302,371.339z" data-original="#000000" class="active-path" data-old_color="#F2EDED" fill="#F9F7F7"/>
	</g>
</g><g>
	<g>
		<path d="M474.302,322.82c-5.522,0-10,4.477-10,10v6.859c0,5.523,4.478,10,10,10s10-4.477,10-10v-6.859    C484.301,327.298,479.823,322.82,474.302,322.82z" data-original="#000000" class="active-path" data-old_color="#F2EDED" fill="#F9F7F7"/>
	</g>
</g></g> </svg>
